<?xml version="1.0" encoding="UTF-8"?>
<!DOCTYPE svg PUBLIC "-//W3C//DTD SVG 1.1//EN" "http://www.w3.org/Graphics/SVG/1.1/DTD/svg11.dtd">
<!-- Creator: CorelDRAW 2020 (64 Bit) -->
<svg xmlns="http://www.w3.org/2000/svg" xml:space="preserve" width="222.1mm" height="155.149mm" version="1.1" style="shape-rendering:geometricPrecision; text-rendering:geometricPrecision; image-rendering:optimizeQuality; fill-rule:evenodd; clip-rule:evenodd"
viewBox="0 0 22208.9 15514.21"
 xmlns:xlink="http://www.w3.org/1999/xlink"
 xmlns:xodm="http://www.corel.com/coreldraw/odm/2003">
 <defs>
  <style type="text/css">
   <![CDATA[
    .fil1 {fill:#FEFEFE}
    .fil0 {fill:#F00C14}
    .fil2 {fill:#FDFDFD}
   ]]>
  </style>
 </defs>
 <g id="Camada_x0020_1">
  <metadata id="CorelCorpID_0Corel-Layer"/>
  <g id="_1669531485632">
   <path class="fil0" d="M11266.59 8380.64c197.45,231.44 551.09,495.28 711.86,741.97 -63.06,200.84 -413.16,494.43 -516.44,608.75 -176.71,-67.17 -648.65,-587.74 -796.42,-749.23 60.34,-153.24 450.33,-534.69 601,-601.49zm507.5 -516.79c84.58,-153.35 397.5,-480.69 557.4,-566 154.42,83.54 690.35,641.84 763.63,752.49 -127.29,230.53 -332.25,327.84 -514.73,565.93 -144.98,-53.41 -696.98,-579.73 -806.31,-752.42zm1109.67 -1118.88c95.66,-157.05 136.96,-172.48 267.72,-299.43 118.55,-115.07 157.98,-189.94 298.92,-261.87 132.99,90.83 672.01,614.93 749.63,747.77 -62.5,158.75 -62.78,114.36 -257.5,305.08 -149.09,146 -162.86,192.45 -305.67,269.19l-753.1 -760.74zm-5494.53 -1072.27c168.61,-176.99 376.97,-387.56 559.94,-549.58 187.09,70.68 601.56,541.39 791.03,749.13l-557.93 574.4c-161.01,-70.46 -710.37,-620.22 -793.04,-773.95zm7115.1 -604.1c169.91,67.16 449.97,385.31 652.66,576.38 111.25,104.9 103.93,89.15 163.32,227.6l-564.55 525.03c-139.73,-51.41 -706.12,-626.25 -780.37,-772.78l528.94 -556.22zm-5436.28 -1055.45c129.19,95.04 691.21,643.24 764.33,784.4l-577.84 540.46c-125.28,-87.5 -286.97,-259.67 -405.27,-379.13 -123.26,-124.45 -275.41,-236.13 -343.82,-407.86l562.6 -537.87zm6022.2 540.65c115.96,-235.39 380.37,-405.03 549.24,-600.83 141.68,124.66 718.11,660.92 782.45,796.38 -100,116.06 -404.72,463.44 -599.81,559.06l-731.89 -754.61zm-4903.31 -1641.61c135.13,92.97 680.35,631.78 754.5,767.89l-568 550.23c-160.08,-85.11 -665.95,-585.14 -777.27,-764.23l590.77 -553.89zm1088.63 -1129.95l764.26 766.87c-75.76,127.61 -496.93,539.69 -591.41,591.75 -167.27,-192.73 -657.29,-588.66 -738.05,-779.26l565.19 -579.36zm1102.54 -1087.49l752.86 735.48c-63.01,184.22 -413.8,509.9 -566.37,598.17 -116.01,-78.94 -275.11,-249.49 -376.31,-360.79 -117.44,-129.15 -244.61,-224.82 -391,-390.36l580.82 -582.49zm-885.78 201.5c-1779.32,71.65 -3705.25,5.13 -5501.22,5.13 -916.87,0 -1833.74,0 -2750.6,0 -707.13,0 -1579.57,-180.09 -1570.88,479.68 3.38,257.46 82.85,284.61 200.69,427.77 958.81,55.72 2898.23,13.47 4027.54,13.7 434.03,0.07 931.53,-103.56 1027.66,263.37 60.65,231.5 -32.95,441.99 -143.85,554.68 -292.31,297.07 -2654.7,-88.72 -3127.1,180.01 -320.11,182.09 -273.91,586.37 -1.11,839.14 528.26,39.47 1146.89,11.31 1684.96,11.31 506.36,0 1247.03,-106.7 1388.85,216.66 65.76,833.78 -441.97,706.03 -1155.76,706.16l-3683.01 6.01c-404.42,0 -1455.72,-108.17 -1713.69,105.3 -163.76,135.51 -259.28,484.47 -72.02,701.38 149.12,172.73 509.7,117.63 806.66,118.09 545.9,0.84 5356.05,-31.82 5449.82,21.94 113.72,146.56 240.47,281.64 149.35,552.2 -64.99,192.98 -209.19,330.87 -427.51,351.89l-3167.52 1.57c-685.54,2.43 -738.85,645.91 -380.9,875.06 255.13,94.06 2433.33,45.89 2898.95,45.85 468,-0.03 1049.45,-68.35 875.84,572.91 -122.33,451.8 -638.72,347.84 -1108.94,347.84 -368.26,0 -4164.97,-31.95 -4347.08,28.39 -382.43,126.67 -385.05,589.43 -87.47,897.9l9375.83 4c203.02,193.34 394.43,393.51 602.05,602.15 179.84,180.68 421.92,455.14 610.57,595.52 173.89,-71.67 603.84,-556.64 741.93,-697.08 511.35,-520.04 4949.64,-4872.39 5022.52,-5077.75 -379.82,-440.97 -4532.75,-4593.65 -4692.19,-4647.05 -353.04,278.86 -580.75,618.7 -932.41,896.27z"/>
   <path class="fil1" d="M15746.9 9456.29c176.63,-267.34 373.29,-361.95 526.68,-583.72 204.22,93.04 670.38,594.53 813.14,762.87 -86.29,176.13 -402.2,466.55 -560.82,593.1l-778.99 -772.25zm1101.56 -1148.06l548.29 -540.3c250.38,94.71 586.66,561.34 806.9,739.3 -73.76,161.72 -453.44,545.19 -618.24,614.74 -114.16,-131.94 -231.5,-237.51 -362.65,-368.9 -180.21,-180.55 -301.71,-260.11 -374.3,-444.83zm1106.4 -1119.28c252.8,-165.63 388.88,-325.35 583.27,-526.36l768.58 773.2c-121.67,168.27 -410.8,471.04 -588.22,567.35 -166.28,-132.55 -691.46,-630.4 -763.63,-814.2zm1112.62 -1050.05c101.78,-111.39 457.64,-503.38 591.41,-577.56l740.32 764.04c-89.32,158.72 -415.47,484.59 -569.73,582.59l-761.99 -769.07zm1718.01 -1682.97l730.38 734.4c-74.43,156.63 -469.02,546.28 -609.85,617.86 -118,-144.75 -247.73,-257.38 -387.23,-397.39 -137.52,-138.04 -277.96,-229.75 -355.96,-409.67l622.67 -545.19zm-3325.74 -3269.39c182.48,70.66 677.67,598.82 776.9,762.43l-577.84 579.95c-168.82,-127.11 -654.05,-602.86 -768.83,-780.54l569.77 -561.84zm328.62 3442.19c-94.84,222.56 -301.35,361.02 -470.13,529.91 -167.68,167.8 -297.72,300.34 -465.91,465.92l-2836.97 2845.36c93.31,212.75 2178.87,2216.57 2411.69,2464.5 205.96,-110.14 1209.78,-1175.13 1462.72,-1428.46l4319.14 -4346.09c-137.59,-194.57 -407.77,-427.23 -592.91,-612.7 -205.36,-205.73 -377.35,-377.81 -582.96,-583.16 -957.29,-956.11 -2598.27,-2669.34 -3497.53,-3496.33l-1956.77 1954.13 2209.64 2206.94z"/>
   <path class="fil2" d="M9513.2 13857.05c-45.94,180.87 -88.16,413.28 -170.79,545.48l-284.64 -1079.91 -1174.98 -10.1 -0.65 332.26 159.34 93.15 -8.23 1305.47 -153.47 93.26 0.98 330.02 834.52 -31.38 -4.19 -345.27 -171.36 -93.25 11.26 -898.62 401.09 1366.16 650.18 -3.37 422.52 -1561.69 -6.59 1144.14c-188.66,58.56 -69.54,0.66 -165.65,93.26l-0.21 327.87 975.86 -13.21 -8.33 -361.29 -162.09 -93.25 0.04 -1212.12c24.98,-91.89 33.72,-6.34 169.04,-139.87l0.76 -323.56c-1089.61,-34.57 -1152.08,-104.03 -1235.92,238.51 -24.76,101.2 -51,189.09 -78.49,297.32z"/>
   <path class="fil1" d="M15301.28 13724.32c259.48,-26.31 462.17,68.01 399.72,333.35 -93.48,175.15 -165.54,194.16 -409.92,164.36l10.2 -497.72zm1032.18 201.04c1.75,-280.62 -115.92,-431.59 -309.36,-523.31 -284.26,-134.77 -1181.23,-106.44 -1544.04,-80.47l10.13 369.83c194.7,84.26 159.71,-32.83 163.44,233.1l0.3 1072.27c-186.54,159.71 -172.43,-61.48 -171.48,464.81l994.72 1.64 -6.53 -384.37 -181.84 -82.08 1.92 -397.04c564.6,-58.2 47.52,638.69 638.79,856.86 268.36,99.02 628.29,81.66 701.15,-320.7 60.39,-333.52 -56.02,-277.56 -103.35,-297.7 -160.73,83.28 -30.84,124.41 -189.35,195.57 -192.44,-437.73 80.76,-276.65 -368.65,-647.48 209.56,-107.85 362.06,-127.87 364.14,-460.94z"/>
   <path class="fil2" d="M6503.92 14960.75c-294.19,-90.6 -213.13,-930.13 -207.72,-1222.71 162.61,-71.61 159.46,88.74 159.86,-424.84l-978.47 -0.55 0.72 397.89 162.72 27.5c37.52,598.74 -208.51,1727.77 907.86,1774.64 1033.51,43.4 938.24,-843.89 937.94,-1728.01 96.19,-101.73 -27.39,-30.33 162.03,-93.16l6.43 -365.94 -915.34 -8.35 0.44 396 156.85 24.82c28.48,394.7 76.02,960.8 -159.51,1217.32l-233.81 5.39z"/>
   <path class="fil2" d="M17698.52 14143.29l-7.59 -427.03 491.61 36.5 0.39 241.61 532.71 -6.49 -0.93 -675.09 -1854.37 7.88 -1.04 324.12c12.39,9.36 27.69,39.23 36.32,45.99 5.8,4.53 19.75,11.53 26.54,16.46 7.45,5.41 23.47,8.51 31.22,14.1 100.18,72.16 45.45,-22.61 99.58,109.93l-0.46 1165.51c-218.1,147.58 -193.42,-56.14 -192.38,465.74l1855.85 -2.73 -3.79 -691.65 -524.04 -2.24 -28.96 281.63 -472.78 5.5 28.58 -500.02 560.24 -0.02 0.44 -410.13 -577.14 0.42z"/>
   <path class="fil2" d="M13199.33 14123.31l17.69 -396.1 467.31 -6.22 25.29 273.7 508.7 -10.59 3.56 -668.12 -1857.44 -3.43 12.58 378.87 183.41 93.25 -0.5 1212.12c-59.56,46.4 13.08,2.48 -89.86,53.76 -18.98,9.45 -51.99,17.41 -101.54,39.46l-3.58 374.48 1857.52 -21.82 -2.04 -669.08 -530.25 -0.53 -0.12 279.68 -490.54 -0.8 -0.15 -498.83 571.56 3.13 11.91 -410.43 -583.51 -22.5z"/>
   <path class="fil2" d="M4733.8 15057.62l-398.25 -33.04 0.25 -1239.91c172.43,-171.97 163.41,98.52 163.05,-470.98l-974.12 6.61 8.94 371.12c181.22,88.79 163.99,-98.17 161.1,466.16 -5.06,987.59 62.47,800.55 -167.6,932.44l0.33 372.05 1721.58 1.18 -0.46 -801.21 -516.6 -0.12 1.78 395.7z"/>
   <path class="fil2" d="M11916.57 13784.67c8.99,-7.98 22.29,-17.45 28.86,-21.6 211.11,-133.18 151.75,17.6 162.78,-451.67l-1025.47 14.63 7.91 365.39c206.12,93.39 99.98,-61.06 187.41,139.85l-1.15 1214.88 -192.52 43.88 0.16 370.47 1023.11 2.04c-0.81,-425.21 22.78,-338.68 -99.21,-415.65l-91.89 -1262.23z"/>
  </g>
 </g>
</svg>
